<svg id="eDWrcwC8ybO1" xmlns="http://www.w3.org/2000/svg" xmlns:xlink="http://www.w3.org/1999/xlink" viewBox="0 0 500 500" shape-rendering="geometricPrecision" text-rendering="geometricPrecision" style="background-color:transparent"><g id="eDWrcwC8ybO2" transform="translate(-7.314435-11.423788)" clip-path="url(#eDWrcwC8ybO131)"><g><g transform="matrix(.6 0 0 0.6-127.6-96.4006)"><g transform="translate(624.778 629.174)"><path d="M213.145004,-0.28c0,0-212.598004,46.238-212.598004,46.238s-215.567004-43.177-215.567004-43.177s204.295004-45.411001,204.295004-45.411001c3.64-.759998,7.34-1.139999,11.04-1.139999c3.58,0,7.15.36,10.68,1.069999c0,0,202.150004,42.420001,202.150004,42.420001Z" fill="#b05400"/></g><g transform="translate(731.508 629.174)"><path d="M106.415001,-0.28c0,0-212.580002,44.05-212.580002,44.05s-.25-87.54-.25-87.54c3.580002,0,7.150002.36,10.68,1.069999c0,0,202.150002,42.420001,202.150002,42.420001Z" fill="#823d00"/></g></g><g id="eDWrcwC8ybO9" transform="matrix(.6 0 0 0.6 215.121 200.138)"><g><path d="M5.56,21.097c0,0-11.12,0-11.12,0-2.471,0-4.474-2.003-4.474-4.474001c0,0,0-33.245998,0-33.245998c0-2.471001,2.003-4.474001,4.474-4.474001c0,0,11.12,0,11.12,0c2.471,0,4.474,2.003,4.474,4.474001c0,0,0,33.245998,0,33.245998C10.034,19.094,8.031,21.097,5.56,21.097Z" fill="#6df4e6"/></g></g><g id="eDWrcwC8ybO12" transform="matrix(.6 0 0 0.6 282.596 199.709)"><g><path d="M5.56,21.097c0,0-11.12,0-11.12,0-2.471,0-4.474-2.003-4.474-4.474001c0,0,0-33.245998,0-33.245998c0-2.471001,2.003-4.474001,4.474-4.474001c0,0,11.12,0,11.12,0c2.471,0,4.474,2.003,4.474,4.474001c0,0,0,33.245998,0,33.245998C10.034,19.094,8.031,21.097,5.56,21.097Z" fill="#c69c6d"/></g></g><g id="eDWrcwC8ybO15" transform="matrix(.6 0 0 0.6 168.301 249.345)"><g><path d="M11.543,18.513c0,0-10.624,3.285-10.624,3.285-2.361.73-4.866-.592001-5.596-2.953001c0,0-9.819-31.762999-9.819-31.762999-.73-2.361.592-4.865001,2.953-5.595c0,0,10.624-3.285,10.624-3.285c2.361-.73,4.866.592001,5.596,2.953001c0,0,9.819,31.762999,9.819,31.762999.73,2.361-.592,4.865001-2.953,5.595Z" fill="#f36aba"/></g></g><g id="eDWrcwC8ybO18" transform="matrix(.6 0 0 0.6 363.11 196.387)"><g><path d="M-2.175,21.709c0,0-10.418-3.892001-10.418-3.892001-2.315-.864999-3.49-3.441999-2.625-5.756999c0,0,11.636-31.144,11.636-31.144.865-2.315,3.442-3.489999,5.757-2.625c0,0,10.418,3.892001,10.418,3.892001c2.315.864999,3.49,3.441999,2.625,5.756999c0,0-11.636,31.144-11.636,31.144-.865,2.315-3.442,3.489999-5.757,2.625Z" fill="#f36aba"/></g></g><g id="eDWrcwC8ybO21" transform="matrix(.426696 0 0 0.426696-39.763154-24.7859)"><g><g transform="translate(473.421 558.518)"><path d="M-16.556999,30.184c0,0,56.056-17.829,56.056-17.829s23.670997-37.758,23.670997-37.758-42.343998-4.781-42.343998-4.781-58.184002,23.375-58.184002,23.375-25.811996,30.684-25.811996,30.684s46.612999,6.309,46.612999,6.309Z" fill="#ff8edc"/></g><g transform="translate(491.363 597.953)"><path d="M-34.499001,-9.251c0,0-5.102001,36.331-5.102001,36.331s79.202004-27.824,79.202004-27.824-18.044003-26.336-18.044003-26.336-56.056,17.829-56.056,17.829Z" fill="#bb2876"/></g><g transform="translate(539.729 567.891)"><path d="M-26.808001,2.982c0,0,23.670001-37.758001,23.670001-37.758001s29.946001,18.774,29.946001,18.774-31.833001,50.778002-31.833001,50.778002-21.783001-31.794001-21.783001-31.794001Z" fill="#ff62aa"/></g><g transform="translate(427.69 603.713)"><path d="M-17.438,-21.32c0,0-11.736999,29.209-11.736999,29.209s53.247,13.431,53.247,13.431s5.102998-36.331,5.102998-36.331-46.612999-6.309-46.612999-6.309Z" fill="#ff62aa"/></g><g transform="translate(491.363 641.545)"><path d="M-39.601002,-16.511999c0,0,65.236002,60.847998,65.236002,60.847998s13.966002-88.671998,13.966002-88.671998-79.202004,27.824-79.202004,27.824Z" fill="#722876"/></g><g transform="translate(457.756 648.741)"><path d="M-59.241001,-37.139c0,0,118.482002,74.278,118.482002,74.278s-65.236001-60.848-65.236001-60.848-53.246001-13.43-53.246001-13.43Z" fill="#ba4ea2"/></g><g transform="translate(541.768 618.885)"><path d="M24.77,-66.996002c0,0-49.54,133.992004-49.54,133.992004s13.967-88.671001,13.967-88.671001s35.573-45.321003,35.573-45.321003Z" fill="#ba4ea2"/></g><g transform="translate(473.421 555.363)"><path d="M-63.169998,27.028999c0,0,126.339996-49.276998,126.339996-49.276998s-42.343998-4.781-42.343998-4.781-58.184002,23.374999-58.184002,23.374999-25.811996,30.682999-25.811996,30.682999Z" fill="#ffc3dc"/></g></g><g transform="translate(455.461 605.823)"><path d="M2.605,-18.166c-6.4,13.105-5.102,36.332-5.102,36.332c4.883-13.297,5.102-36.332,5.102-36.332Z" fill="#ffc3dc"/></g></g><g id="eDWrcwC8ybO41" transform="matrix(.384282 0 0 0.384282 36.0732 23.851)"><g><g transform="translate(786.753 527.677)"><path d="M-30.801001,7.598c0,0,57.271,19.496999,57.271,19.496999s39.274004-22.058999,39.274004-22.058999-35.268003-24.73-35.268003-24.73-62.948-7.400999-62.948-7.400999-33.272003,18.687999-33.272003,18.687999s34.943002,16.005,34.943002,16.005Z" fill="#7cfff9"/></g><g transform="translate(774.959 564.401)"><path d="M-19.007999,-29.125999c0,0-23.208001,37.975999-23.208001,37.975999s84.432,20.275999,84.432,20.275999-3.953-38.754999-3.953-38.754999-57.270999-19.496999-57.270999-19.496999Z" fill="#00a5ec"/></g><g transform="translate(841.608 563.119)"><path d="M-28.385,-8.348c0,0,39.275-22.059,39.275-22.059s17.495,31.148,17.495,31.148-52.818001,29.666-52.818001,29.666-3.951999-38.755-3.951999-38.755Z" fill="#00dbff"/></g><g transform="translate(723.968 546.26)"><path d="M-2.959,-26.99c0,0-29.024999,16.302-29.024999,16.302s40.759999,37.678,40.759999,37.678s23.207999-37.976,23.207999-37.976-34.942999-16.004-34.942999-16.004Z" fill="#00dcff"/></g><g transform="translate(774.959 616.032)"><path d="M-42.216,-42.780998c0,0,28.461,85.561996,28.461,85.561996s55.971-65.285997,55.971-65.285997-84.432-20.275999-84.432-20.275999Z" fill="#1070c4"/></g><g transform="translate(726.594 597.193)"><path d="M-34.610001,-61.619999c0,0,69.220002,123.239998,69.220002,123.239998s-28.460001-85.561998-28.460001-85.561998-40.760001-37.678-40.760001-37.678Z" fill="#2181e5"/></g><g transform="translate(815.599 611.337)"><path d="M54.394001,-47.476002c0,0-108.788002,94.952004-108.788002,94.952004s55.971001-65.286001,55.971001-65.286001s52.817001-29.666003,52.817001-29.666003Z" fill="#00afff"/></g><g transform="translate(786.753 516.647)"><path d="M-65.744003,2.623c0,0,131.488006,13.442001,131.488006,13.442001s-35.268003-24.729001-35.268003-24.729001-62.948-7.401001-62.948-7.401001-33.272003,18.688001-33.272003,18.688001Z" fill="#b6fff9"/></g></g><g transform="translate(744.348 554.263)"><path d="M11.604,-18.988001C2.379,-9.869,-11.13,15.992,-11.604,18.988001C2.856,4.985,11.604,-18.988001,11.604,-18.988001Z" fill="#7cfff9"/></g></g><g id="eDWrcwC8ybO61" transform="matrix(.452826 0.393635-.393635 0.452826 399.133 217.876)"><g><path d="M5.56,21.097c0,0-11.12,0-11.12,0-2.471,0-4.474-2.003-4.474-4.474001c0,0,0-33.245998,0-33.245998c0-2.471001,2.003-4.474001,4.474-4.474001c0,0,11.12,0,11.12,0c2.471,0,4.474,2.003,4.474,4.474001c0,0,0,33.245998,0,33.245998C10.034,19.094,8.031,21.097,5.56,21.097Z" fill="#8cc63f"/></g></g><g id="eDWrcwC8ybO64" transform="matrix(.6 0 0 0.6 126.094 177.063)"><g><path d="M10.548,0C10.548,5.826,5.826,10.548,0,10.548s-10.548-4.722-10.548-10.548s4.722-10.548,10.548-10.548s10.548,4.722,10.548,10.548Z" fill="#c69c6d"/></g></g><g id="eDWrcwC8ybO67" transform="matrix(.6 0 0 0.6 315.483 251.049)"><g><path d="M10.548,0C10.548,5.826,5.826,10.548,0,10.548s-10.548-4.722-10.548-10.548s4.722-10.548,10.548-10.548s10.548,4.722,10.548,10.548Z" fill="#ffd462"/></g></g><g id="eDWrcwC8ybO70" transform="matrix(.472763-.074878 0.074878 0.472763-164.05 22.7163)"><g><g transform="translate(786.753 527.677)"><path d="M-30.801001,7.598c0,0,57.271,19.496999,57.271,19.496999s39.274004-22.058999,39.274004-22.058999-35.268003-24.73-35.268003-24.73-62.948-7.400999-62.948-7.400999-33.272003,18.687999-33.272003,18.687999s34.943002,16.005,34.943002,16.005Z" fill="#7cfff9"/></g><g transform="translate(774.959 564.401)"><path d="M-19.007999,-29.125999c0,0-23.208001,37.975999-23.208001,37.975999s84.432,20.275999,84.432,20.275999-3.953-38.754999-3.953-38.754999-57.270999-19.496999-57.270999-19.496999Z" fill="#00a5ec"/></g><g transform="translate(841.608 563.119)"><path d="M-28.385,-8.348c0,0,39.275-22.059,39.275-22.059s17.495,31.148,17.495,31.148-52.818001,29.666-52.818001,29.666-3.951999-38.755-3.951999-38.755Z" fill="#00dbff"/></g><g transform="translate(723.968 546.26)"><path d="M-2.959,-26.99c0,0-29.024999,16.302-29.024999,16.302s40.759999,37.678,40.759999,37.678s23.207999-37.976,23.207999-37.976-34.942999-16.004-34.942999-16.004Z" fill="#00dcff"/></g><g transform="translate(774.959 616.032)"><path d="M-42.216,-42.780998c0,0,28.461,85.561996,28.461,85.561996s55.971-65.285997,55.971-65.285997-84.432-20.275999-84.432-20.275999Z" fill="#1070c4"/></g><g transform="translate(726.594 597.193)"><path d="M-34.610001,-61.619999c0,0,69.220002,123.239998,69.220002,123.239998s-28.460001-85.561998-28.460001-85.561998-40.760001-37.678-40.760001-37.678Z" fill="#2181e5"/></g><g transform="translate(815.599 611.337)"><path d="M54.394001,-47.476002c0,0-108.788002,94.952004-108.788002,94.952004s55.971001-65.286001,55.971001-65.286001s52.817001-29.666003,52.817001-29.666003Z" fill="#00afff"/></g><g transform="translate(786.753 516.647)"><path d="M-65.744003,2.623c0,0,131.488006,13.442001,131.488006,13.442001s-35.268003-24.729001-35.268003-24.729001-62.948-7.401001-62.948-7.401001-33.272003,18.688001-33.272003,18.688001Z" fill="#b6fff9"/></g></g><g transform="translate(744.348 554.263)"><path d="M11.604,-18.988001C2.379,-9.869,-11.13,15.992,-11.604,18.988001C2.856,4.985,11.604,-18.988001,11.604,-18.988001Z" fill="#7cfff9"/></g></g><g id="eDWrcwC8ybO90" transform="matrix(.6 0 0 0.6 108.552 248.31)"><g><path d="M10.548,0C10.548,5.826,5.826,10.548,0,10.548s-10.548-4.722-10.548-10.548s4.722-10.548,10.548-10.548s10.548,4.722,10.548,10.548Z" fill="#8cc63f"/></g></g><g transform="matrix(.6 0 0 0.6-127.6-96.4006)"><g transform="translate(626.77 784.578)"><path d="M222.470001,65.542c.020004,9.899002-6.339996,18.688003-15.759994,21.774002c0,0-198.750007,65.135002-198.750007,65.135002-2.58.838989-5.27,1.259003-7.96,1.259003-2.71,0-5.42-.430008-8.02-1.279007c0,0-198.690007-65.114998-198.690007-65.114998-9.419998-3.085999-15.779998-11.875-15.759994-21.774002c0,0,.350006-170.543999.350006-170.543999s.080002-38.395996.080002-38.395996c.019989-6.053009,5.179992-10.688004,11.029998-10.28801.470002.029999.949997.100006,1.429993.200013c0,0,209.580002,43.848991,209.580002,43.848991s209.199997-43.769005,209.199997-43.769005c1.080002-.229996,2.150009-.279999,3.180008-.189987c5.039993.478989,9.209991,4.514999,9.619995,9.758987.029999.270005.039993.549012.039993.82901c0,0,.430008,208.549996.430008,208.549996Z" fill="#ff8f28"/></g><g transform="translate(736.598 782.922)"><path d="M111.235001,65.503998c.019996,9.899002-6.340004,18.689003-15.760003,21.775001c0,0-198.75,65.135002-198.75,65.135002-2.580001.839005-5.269996,1.259003-7.959999,1.259003c0,0,0-263.347008,0-263.347008s209.199997-43.769996,209.199997-43.769996c6.610001-1.378006,12.820008,3.645996,12.840004,10.397995c0,0,.430001,208.550003.430001,208.550003Z" fill="#d76700"/></g><g transform="translate(513.876 777.719)"><path d="M31.35,-121.823997c0,0,0,255.176002,0,255.176002c0,2.763-2.703001,4.718002-5.331001,3.856995c0,0-54.571998-17.884003-54.571998-17.884003C-30.222,118.778,-31.35,117.222,-31.35,115.468002c0,0,0-248.682998,0-248.682998c0-2.666001,2.455-4.656998,5.066999-4.109009c0,0,54.294001,11.392006,54.294001,11.392006c1.946001.407997,3.339,2.122001,3.339,4.108002Z" fill="#f9c741"/></g><g transform="translate(736.876 777.939)"><path d="M-31.35,-121.757004c0,0,0,254.889008,0,254.889008c0,2.763,2.703001,4.718002,5.331001,3.856994c0,0,54.571998-17.883995,54.571998-17.883995C30.222,118.557999,31.35,117.001999,31.35,115.248001c0,0,0-248.242004,0-248.242004c0-2.660996-2.447-4.651001-5.055999-4.110993c0,0-54.294001,11.237-54.294001,11.237-1.951.403999-3.35,2.120994-3.35,4.110992Z" fill="#f9c741"/></g></g><g id="eDWrcwC8ybO105" transform="matrix(.599527-.023819 0.023819 0.599527-136.122-71.6236)"><g transform="translate(506.654 392.532)"><path d="M-118.363998,-49.714001c0,0-.345002,47.901001-.345002,47.901001-.041999,5.806,4.012001,10.839,9.694001,12.035c0,0,227.723999,47.944,227.723999,47.944s0-75,0-75-227.043-41.193-227.043-41.193c-5.198997-.943001-9.991996,3.028999-10.029998,8.312999Z" fill="#ff8f28"/></g><g transform="translate(744.073 392.634)"><path d="M118.373001,-48.571999c0,0,.335999,46.655999.335999,46.655999.041999,5.806-4.012001,10.84-9.694001,12.036c0,0-227.723999,47.943999-227.723999,47.943999s0-75,0-75s225.817002-40.971,225.817002-40.971c5.838997-1.058999,11.222,3.401,11.264999,9.335002Z" fill="#cb6000"/></g><g transform="translate(624.844 332.698)"><path d="M-229.072006,1.734C-229.072006,1.734,-1.481,-43,-1.481,-43s230.553006,44.937,230.553006,44.937C229.072006,1.937,0.519,43,0.519,43s-229.591006-41.266-229.591006-41.266Z" fill="#ffc16a"/></g></g><g id="eDWrcwC8ybO112" transform="matrix(.599527-.023819 0.023819 0.599527 192.855 171.827)"><g><path d="M78.108002,-91.066002C-21.892,-46.657001,-20.892,7.621,-13.892,92.737999c.543,6.608002-4.563,2.387001-11.246-5.604996-7.877999-9.420006-17.945-24.081005-23.534001-32.425003-2.132-3.182998-6.151001-2.899002-7.966999.569-3.393001,6.481999-8.431999,16.594002-12.252998,26.358002-3.685005,9.416001-7.578003,2.935997-8.870003-12.108002C-81.378998,27.417999,-57.620998,-80.549004,41.108002,-96c0,0,37,4.933998,37,4.933998Z" fill="#fcedc3"/></g></g><g id="eDWrcwC8ybO115" transform="matrix(.599527-.023819 0.023819 0.599527 302.568 167.468)"><g><path d="M-78.108002,-91.066002C21.892,-46.657001,20.892,7.621,13.892,92.737999c-.543,6.608002,4.563,2.387001,11.246-5.604996C33.015999,77.712997,43.083,63.051998,48.672001,54.708c2.132-3.182998,6.151001-2.899002,7.966999.569c3.393001,6.481999,8.431999,16.594002,12.252998,26.358002c3.685005,9.416001,7.578003,2.935997,8.870003-12.108002C81.378998,27.417999,57.620998,-80.549004,-41.108002,-96c0,0-37,4.933998-37,4.933998Z" fill="#fcedc3"/></g></g><g id="eDWrcwC8ybO118" transform="matrix(.595397-.074182 0.074182 0.595397-150.119-37.837)"><g transform="translate(732.739 279.704)"><path d="M-89.492996,22.157C-38.098,-35.404999,49.272999,-95.024002,58.523998,-21.014999c64.757,44.199998,15.418003,75.036998-33.920997,76.064998s-114.095997,0-114.095997,0s0-32.892999,0-32.892999Z" fill="#ff8f28"/></g><g transform="translate(717.255 271.787)"><path d="M-74.010002,30.070999c0,0,0,17.520001,0,17.520001c1.050003-.130001,2.18-.369999,3.400001-.720002C-32.889999,22.711,49.009998,-30.809,74.010002,-13.099c-9.25-74.010001-96.620003-14.39-148.020004,43.169999Z" fill="#fa3"/></g></g><g id="eDWrcwC8ybO123" transform="matrix(.599405 0.026713-.026713 0.599405-119.337-102.35)"><g transform="translate(520.858 279.703)"><path d="M89.496002,22.153999c0,0,0,32.900002,0,32.900002s-64.760002,1.02-114.100002,0c-49.34-1.030003-98.679997-31.870001-33.919998-76.070002c9.25-74.01,96.619999-14.389997,148.02,43.17Z" fill="#ff8f28"/></g><g transform="translate(536.343 271.787)"><path d="M74.010002,30.070999c0,0,0,17.520001,0,17.520001-1.050003-.130001-2.18-.369999-3.400001-.720002C32.889999,22.711,-49.009998,-30.809,-74.010002,-13.099c9.25-74.010001,96.620003-14.39,148.020004,43.169999Z" fill="#fa3"/></g></g><g id="eDWrcwC8ybO128" transform="matrix(.599527-.023819 0.023819 0.599527 245.555 100.644)"><g><path d="M10.435,32.893002c0,0-20.87,0-20.87,0-13.2,0-24.000001-10.800002-24.000001-24.000002c0,0,0-17.786,0-17.786c0-13.2,10.800001-24.000002,24.000001-24.000002c0,0,20.87,0,20.87,0c13.2,0,24.000001,10.800002,24.000001,24.000002c0,0,0,17.786,0,17.786c0,13.2-10.800001,24.000002-24.000001,24.000002Z" fill="#fdedc3"/></g></g></g><clipPath id="eDWrcwC8ybO131"><rect width="500" height="500" rx="0" ry="0"/></clipPath></g>
<script><![CDATA[
!function(t,n){"object"==typeof exports&&"undefined"!=typeof module?module.exports=n():"function"==typeof define&&define.amd?define(n):((t="undefined"!=typeof globalThis?globalThis:t||self).__SVGATOR_PLAYER__=t.__SVGATOR_PLAYER__||{},t.__SVGATOR_PLAYER__["5c7f360c"]=n())}(this,(function(){"use strict";function t(t,n){var e=Object.keys(t);if(Object.getOwnPropertySymbols){var r=Object.getOwnPropertySymbols(t);n&&(r=r.filter((function(n){return Object.getOwnPropertyDescriptor(t,n).enumerable}))),e.push.apply(e,r)}return e}function n(n){for(var e=1;e<arguments.length;e++){var r=null!=arguments[e]?arguments[e]:{};e%2?t(Object(r),!0).forEach((function(t){o(n,t,r[t])})):Object.getOwnPropertyDescriptors?Object.defineProperties(n,Object.getOwnPropertyDescriptors(r)):t(Object(r)).forEach((function(t){Object.defineProperty(n,t,Object.getOwnPropertyDescriptor(r,t))}))}return n}function e(t){return(e="function"==typeof Symbol&&"symbol"==typeof Symbol.iterator?function(t){return typeof t}:function(t){return t&&"function"==typeof Symbol&&t.constructor===Symbol&&t!==Symbol.prototype?"symbol":typeof t})(t)}function r(t,n){if(!(t instanceof n))throw new TypeError("Cannot call a class as a function")}function i(t,n){for(var e=0;e<n.length;e++){var r=n[e];r.enumerable=r.enumerable||!1,r.configurable=!0,"value"in r&&(r.writable=!0),Object.defineProperty(t,r.key,r)}}function u(t,n,e){return n&&i(t.prototype,n),e&&i(t,e),t}function o(t,n,e){return n in t?Object.defineProperty(t,n,{value:e,enumerable:!0,configurable:!0,writable:!0}):t[n]=e,t}function a(t){return(a=Object.setPrototypeOf?Object.getPrototypeOf:function(t){return t.__proto__||Object.getPrototypeOf(t)})(t)}function l(t,n){return(l=Object.setPrototypeOf||function(t,n){return t.__proto__=n,t})(t,n)}function s(){if("undefined"==typeof Reflect||!Reflect.construct)return!1;if(Reflect.construct.sham)return!1;if("function"==typeof Proxy)return!0;try{return Boolean.prototype.valueOf.call(Reflect.construct(Boolean,[],(function(){}))),!0}catch(t){return!1}}function f(t,n,e){return(f=s()?Reflect.construct:function(t,n,e){var r=[null];r.push.apply(r,n);var i=new(Function.bind.apply(t,r));return e&&l(i,e.prototype),i}).apply(null,arguments)}function c(t,n){if(n&&("object"==typeof n||"function"==typeof n))return n;if(void 0!==n)throw new TypeError("Derived constructors may only return object or undefined");return function(t){if(void 0===t)throw new ReferenceError("this hasn't been initialised - super() hasn't been called");return t}(t)}function h(t,n,e){return(h="undefined"!=typeof Reflect&&Reflect.get?Reflect.get:function(t,n,e){var r=function(t,n){for(;!Object.prototype.hasOwnProperty.call(t,n)&&null!==(t=a(t)););return t}(t,n);if(r){var i=Object.getOwnPropertyDescriptor(r,n);return i.get?i.get.call(e):i.value}})(t,n,e||t)}function v(t){return function(t){if(Array.isArray(t))return y(t)}(t)||function(t){if("undefined"!=typeof Symbol&&null!=t[Symbol.iterator]||null!=t["@@iterator"])return Array.from(t)}(t)||function(t,n){if(!t)return;if("string"==typeof t)return y(t,n);var e=Object.prototype.toString.call(t).slice(8,-1);"Object"===e&&t.constructor&&(e=t.constructor.name);if("Map"===e||"Set"===e)return Array.from(t);if("Arguments"===e||/^(?:Ui|I)nt(?:8|16|32)(?:Clamped)?Array$/.test(e))return y(t,n)}(t)||function(){throw new TypeError("Invalid attempt to spread non-iterable instance.\nIn order to be iterable, non-array objects must have a [Symbol.iterator]() method.")}()}function y(t,n){(null==n||n>t.length)&&(n=t.length);for(var e=0,r=new Array(n);e<n;e++)r[e]=t[e];return r}Number.isInteger||(Number.isInteger=function(t){return"number"==typeof t&&isFinite(t)&&Math.floor(t)===t}),Number.EPSILON||(Number.EPSILON=2220446049250313e-31);var g=d(Math.pow(10,-6));function d(t){var n=arguments.length>1&&void 0!==arguments[1]?arguments[1]:6;if(Number.isInteger(t))return t;var e=Math.pow(10,n);return Math.round((+t+Number.EPSILON)*e)/e}function p(t,n){var e=arguments.length>2&&void 0!==arguments[2]?arguments[2]:g;return Math.abs(t-n)<e}var m=Math.PI/180;function b(t){return t}function w(t,n,e){var r=1-e;return 3*e*r*(t*r+n*e)+e*e*e}function x(){var t=arguments.length>0&&void 0!==arguments[0]?arguments[0]:0,n=arguments.length>1&&void 0!==arguments[1]?arguments[1]:0,e=arguments.length>2&&void 0!==arguments[2]?arguments[2]:1,r=arguments.length>3&&void 0!==arguments[3]?arguments[3]:1;return t<0||t>1||e<0||e>1?null:p(t,n)&&p(e,r)?b:function(i){if(i<=0)return t>0?i*n/t:0===n&&e>0?i*r/e:0;if(i>=1)return e<1?1+(i-1)*(r-1)/(e-1):1===e&&t<1?1+(i-1)*(n-1)/(t-1):1;for(var u,o=0,a=1;o<a;){var l=w(t,e,u=(o+a)/2);if(p(i,l))break;l<i?o=u:a=u}return w(n,r,u)}}function A(){return 1}function k(t){return 1===t?1:0}function _(){var t=arguments.length>0&&void 0!==arguments[0]?arguments[0]:1,n=arguments.length>1&&void 0!==arguments[1]?arguments[1]:0;if(1===t){if(0===n)return k;if(1===n)return A}var e=1/t;return function(t){return t>=1?1:(t+=n*e)-t%e}}var S=Math.sin,O=Math.cos,j=Math.acos,M=Math.asin,P=Math.tan,E=Math.atan2,I=Math.PI/180,R=180/Math.PI,F=Math.sqrt,N=function(){function t(){var n=arguments.length>0&&void 0!==arguments[0]?arguments[0]:1,e=arguments.length>1&&void 0!==arguments[1]?arguments[1]:0,i=arguments.length>2&&void 0!==arguments[2]?arguments[2]:0,u=arguments.length>3&&void 0!==arguments[3]?arguments[3]:1,o=arguments.length>4&&void 0!==arguments[4]?arguments[4]:0,a=arguments.length>5&&void 0!==arguments[5]?arguments[5]:0;r(this,t),this.m=[n,e,i,u,o,a],this.i=null,this.w=null,this.s=null}return u(t,[{key:"determinant",get:function(){var t=this.m;return t[0]*t[3]-t[1]*t[2]}},{key:"isIdentity",get:function(){if(null===this.i){var t=this.m;this.i=1===t[0]&&0===t[1]&&0===t[2]&&1===t[3]&&0===t[4]&&0===t[5]}return this.i}},{key:"point",value:function(t,n){var e=this.m;return{x:e[0]*t+e[2]*n+e[4],y:e[1]*t+e[3]*n+e[5]}}},{key:"translateSelf",value:function(){var t=arguments.length>0&&void 0!==arguments[0]?arguments[0]:0,n=arguments.length>1&&void 0!==arguments[1]?arguments[1]:0;if(!t&&!n)return this;var e=this.m;return e[4]+=e[0]*t+e[2]*n,e[5]+=e[1]*t+e[3]*n,this.w=this.s=this.i=null,this}},{key:"rotateSelf",value:function(){var t=arguments.length>0&&void 0!==arguments[0]?arguments[0]:0;if(t%=360){var n=S(t*=I),e=O(t),r=this.m,i=r[0],u=r[1];r[0]=i*e+r[2]*n,r[1]=u*e+r[3]*n,r[2]=r[2]*e-i*n,r[3]=r[3]*e-u*n,this.w=this.s=this.i=null}return this}},{key:"scaleSelf",value:function(){var t=arguments.length>0&&void 0!==arguments[0]?arguments[0]:1,n=arguments.length>1&&void 0!==arguments[1]?arguments[1]:1;if(1!==t||1!==n){var e=this.m;e[0]*=t,e[1]*=t,e[2]*=n,e[3]*=n,this.w=this.s=this.i=null}return this}},{key:"skewSelf",value:function(t,n){if(n%=360,(t%=360)||n){var e=this.m,r=e[0],i=e[1],u=e[2],o=e[3];t&&(t=P(t*I),e[2]+=r*t,e[3]+=i*t),n&&(n=P(n*I),e[0]+=u*n,e[1]+=o*n),this.w=this.s=this.i=null}return this}},{key:"resetSelf",value:function(){var t=arguments.length>0&&void 0!==arguments[0]?arguments[0]:1,n=arguments.length>1&&void 0!==arguments[1]?arguments[1]:0,e=arguments.length>2&&void 0!==arguments[2]?arguments[2]:0,r=arguments.length>3&&void 0!==arguments[3]?arguments[3]:1,i=arguments.length>4&&void 0!==arguments[4]?arguments[4]:0,u=arguments.length>5&&void 0!==arguments[5]?arguments[5]:0,o=this.m;return o[0]=t,o[1]=n,o[2]=e,o[3]=r,o[4]=i,o[5]=u,this.w=this.s=this.i=null,this}},{key:"recomposeSelf",value:function(){var t=arguments.length>0&&void 0!==arguments[0]?arguments[0]:null,n=arguments.length>1&&void 0!==arguments[1]?arguments[1]:null,e=arguments.length>2&&void 0!==arguments[2]?arguments[2]:null,r=arguments.length>3&&void 0!==arguments[3]?arguments[3]:null,i=arguments.length>4&&void 0!==arguments[4]?arguments[4]:null;return this.isIdentity||this.resetSelf(),t&&(t.x||t.y)&&this.translateSelf(t.x,t.y),n&&this.rotateSelf(n),e&&(e.x&&this.skewSelf(e.x,0),e.y&&this.skewSelf(0,e.y)),!r||1===r.x&&1===r.y||this.scaleSelf(r.x,r.y),i&&(i.x||i.y)&&this.translateSelf(i.x,i.y),this}},{key:"decompose",value:function(){var t=arguments.length>0&&void 0!==arguments[0]?arguments[0]:0,n=arguments.length>1&&void 0!==arguments[1]?arguments[1]:0,e=this.m,r=e[0]*e[0]+e[1]*e[1],i=[[e[0],e[1]],[e[2],e[3]]],u=F(r);if(0===u)return{origin:{x:d(e[4]),y:d(e[5])},translate:{x:d(t),y:d(n)},scale:{x:0,y:0},skew:{x:0,y:0},rotate:0};i[0][0]/=u,i[0][1]/=u;var o=e[0]*e[3]-e[1]*e[2]<0;o&&(u=-u);var a=i[0][0]*i[1][0]+i[0][1]*i[1][1];i[1][0]-=i[0][0]*a,i[1][1]-=i[0][1]*a;var l=F(i[1][0]*i[1][0]+i[1][1]*i[1][1]);if(0===l)return{origin:{x:d(e[4]),y:d(e[5])},translate:{x:d(t),y:d(n)},scale:{x:d(u),y:0},skew:{x:0,y:0},rotate:0};i[1][0]/=l,i[1][1]/=l,a/=l;var s=0;return i[1][1]<0?(s=j(i[1][1])*R,i[0][1]<0&&(s=360-s)):s=M(i[0][1])*R,o&&(s=-s),a=E(a,F(i[0][0]*i[0][0]+i[0][1]*i[0][1]))*R,o&&(a=-a),{origin:{x:d(e[4]),y:d(e[5])},translate:{x:d(t),y:d(n)},scale:{x:d(u),y:d(l)},skew:{x:d(a),y:0},rotate:d(s)}}},{key:"clone",value:function(){var t=this.m;return new this.constructor(t[0],t[1],t[2],t[3],t[4],t[5])}},{key:"toString",value:function(){var t=arguments.length>0&&void 0!==arguments[0]?arguments[0]:" ";if(null===this.s){var n=this.m.map((function(t){return d(t)}));1===n[0]&&0===n[1]&&0===n[2]&&1===n[3]?this.s="translate("+n[4]+t+n[5]+")":this.s="matrix("+n.join(t)+")"}return this.s}}],[{key:"create",value:function(t){return t?Array.isArray(t)?f(this,v(t)):t instanceof this?t.clone():(new this).recomposeSelf(t.origin,t.rotate,t.skew,t.scale,t.translate):new this}}]),t}();function T(t,n,e){return t>=.5?e:n}function q(t,n,e){return 0===t||n===e?n:t*(e-n)+n}function B(t,n,e){var r=q(t,n,e);return r<=0?0:r}function L(t,n,e){var r=q(t,n,e);return r<=0?0:r>=1?1:r}function C(t,n,e){return 0===t?n:1===t?e:{x:q(t,n.x,e.x),y:q(t,n.y,e.y)}}function D(t,n,e){var r=function(t,n,e){return Math.round(q(t,n,e))}(t,n,e);return r<=0?0:r>=255?255:r}function z(t,n,e){return 0===t?n:1===t?e:{r:D(t,n.r,e.r),g:D(t,n.g,e.g),b:D(t,n.b,e.b),a:q(t,null==n.a?1:n.a,null==e.a?1:e.a)}}function V(t,n){for(var e=[],r=0;r<t;r++)e.push(n);return e}function G(t,n){if(--n<=0)return t;var e=(t=Object.assign([],t)).length;do{for(var r=0;r<e;r++)t.push(t[r])}while(--n>0);return t}var Y,$=function(){function t(n){r(this,t),this.list=n,this.length=n.length}return u(t,[{key:"setAttribute",value:function(t,n){for(var e=this.list,r=0;r<this.length;r++)e[r].setAttribute(t,n)}},{key:"removeAttribute",value:function(t){for(var n=this.list,e=0;e<this.length;e++)n[e].removeAttribute(t)}},{key:"style",value:function(t,n){for(var e=this.list,r=0;r<this.length;r++)e[r].style[t]=n}}]),t}(),U=/-./g,Q=function(t,n){return n.toUpperCase()};function H(t){return"function"==typeof t?t:T}function J(t){return t?"function"==typeof t?t:Array.isArray(t)?function(t){var n=arguments.length>1&&void 0!==arguments[1]?arguments[1]:b;if(!Array.isArray(t))return n;switch(t.length){case 1:return _(t[0])||n;case 2:return _(t[0],t[1])||n;case 4:return x(t[0],t[1],t[2],t[3])||n}return n}(t,null):function(t,n){var e=arguments.length>2&&void 0!==arguments[2]?arguments[2]:b;switch(t){case"linear":return b;case"steps":return _(n.steps||1,n.jump||0)||e;case"bezier":case"cubic-bezier":return x(n.x1||0,n.y1||0,n.x2||0,n.y2||0)||e}return e}(t.type,t.value,null):null}function Z(t,n,e){var r=arguments.length>3&&void 0!==arguments[3]&&arguments[3],i=n.length-1;if(t<=n[0].t)return r?[0,0,n[0].v]:n[0].v;if(t>=n[i].t)return r?[i,1,n[i].v]:n[i].v;var u,o=n[0],a=null;for(u=1;u<=i;u++){if(!(t>n[u].t)){a=n[u];break}o=n[u]}return null==a?r?[i,1,n[i].v]:n[i].v:o.t===a.t?r?[u,1,a.v]:a.v:(t=(t-o.t)/(a.t-o.t),o.e&&(t=o.e(t)),r?[u,t,e(t,o.v,a.v)]:e(t,o.v,a.v))}function K(t,n){var e=arguments.length>2&&void 0!==arguments[2]?arguments[2]:null;return t&&t.length?"function"!=typeof n?null:("function"!=typeof e&&(e=null),function(r){var i=Z(r,t,n);return null!=i&&e&&(i=e(i)),i}):null}function W(t,n){return t.t-n.t}function X(t,n,r,i,u){var o,a="@"===r[0],l="#"===r[0],s=Y[r],f=T;switch(a?(o=r.substr(1),r=o.replace(U,Q)):l&&(r=r.substr(1)),e(s)){case"function":if(f=s(i,u,Z,J,r,a,n,t),l)return f;break;case"string":f=K(i,H(s));break;case"object":if((f=K(i,H(s.i),s.f))&&"function"==typeof s.u)return s.u(n,f,r,a,t)}return f?function(t,n,e){if(arguments.length>3&&void 0!==arguments[3]&&arguments[3])return t instanceof $?function(r){return t.style(n,e(r))}:function(r){return t.style[n]=e(r)};if(Array.isArray(n)){var r=n.length;return function(i){var u=e(i);if(null==u)for(var o=0;o<r;o++)t[o].removeAttribute(n);else for(var a=0;a<r;a++)t[a].setAttribute(n,u)}}return function(r){var i=e(r);null==i?t.removeAttribute(n):t.setAttribute(n,i)}}(n,r,f,a):null}function tt(t,n,r,i){if(!i||"object"!==e(i))return null;var u=null,o=null;return Array.isArray(i)?o=function(t){if(!t||!t.length)return null;for(var n=0;n<t.length;n++)t[n].e&&(t[n].e=J(t[n].e));return t.sort(W)}(i):(o=i.keys,u=i.data||null),o?X(t,n,r,o,u):null}function nt(t,n,e){if(!e)return null;var r=[];for(var i in e)if(e.hasOwnProperty(i)){var u=tt(t,n,i,e[i]);u&&r.push(u)}return r.length?r:null}function et(t,n){if(!n.settings.duration||n.settings.duration<0)return null;var e,r,i,u,o,a=function(t,n){if(!n)return null;var e=[];if(Array.isArray(n))for(var r=n.length,i=0;i<r;i++){var u=n[i];if(2===u.length){var o=null;if("string"==typeof u[0])o=t.getElementById(u[0]);else if(Array.isArray(u[0])){o=[];for(var a=0;a<u[0].length;a++)if("string"==typeof u[0][a]){var l=t.getElementById(u[0][a]);l&&o.push(l)}o=o.length?1===o.length?o[0]:new $(o):null}if(o){var s=nt(t,o,u[1]);s&&(e=e.concat(s))}}}else for(var f in n)if(n.hasOwnProperty(f)){var c=t.getElementById(f);if(c){var h=nt(t,c,n[f]);h&&(e=e.concat(h))}}return e.length?e:null}(t,n.elements);return a?(e=a,r=n.settings,i=r.duration,u=e.length,o=null,function(t,n){var a=r.iterations||1/0,l=(r.alternate&&a%2==0)^r.direction>0?i:0,s=t%i,f=1+(t-s)/i;n*=r.direction,r.alternate&&f%2==0&&(n=-n);var c=!1;if(f>a)s=l,c=!0,-1===r.fill&&(s=r.direction>0?0:i);else if(n<0&&(s=i-s),s===o)return!1;o=s;for(var h=0;h<u;h++)e[h](s);return c}):null}function rt(t,n){if(Y=n,!t||!t.root||!Array.isArray(t.animations))return null;var e=function(t){for(var n=document.getElementsByTagName("svg"),e=0;e<n.length;e++)if(n[e].id===t.root&&!n[e].svgatorAnimation)return n[e].svgatorAnimation=!0,n[e];return null}(t);if(!e)return null;var r=t.animations.map((function(t){return et(e,t)})).filter((function(t){return!!t}));return r.length?{svg:e,animations:r,animationSettings:t.animationSettings,options:t.options||void 0}:null}function it(t){return+("0x"+(t.replace(/[^0-9a-fA-F]+/g,"")||27))}function ut(t,n,e){return!t||!e||n>t.length?t:t.substring(0,n)+ut(t.substring(n+1),e,e)}function ot(t){var n=arguments.length>1&&void 0!==arguments[1]?arguments[1]:27;return!t||t%n?t%n:ot(t/n,n)}function at(t,n,e){if(t&&t.length){var r=it(e),i=it(n),u=ot(r)+5,o=ut(t,ot(r,5),u);return o=o.replace(/\x7c$/g,"==").replace(/\x2f$/g,"="),o=function(t,n,e){var r=+("0x"+t.substring(0,4));t=t.substring(4);for(var i=n%r+e%27,u=[],o=0;o<t.length;o+=2)if("|"!==t[o]){var a=+("0x"+t[o]+t[o+1])-i;u.push(a)}else{var l=+("0x"+t.substring(o+1,o+1+4))-i;o+=3,u.push(l)}return String.fromCharCode.apply(String,u)}(o=(o=atob(o)).replace(/[\x41-\x5A]/g,""),i,r),o=JSON.parse(o)}}var lt=[{key:"alternate",def:!1},{key:"fill",def:1},{key:"iterations",def:0},{key:"direction",def:1},{key:"speed",def:1},{key:"fps",def:100}],st=function(){function t(n,e){var i=this,u=arguments.length>2&&void 0!==arguments[2]?arguments[2]:null;r(this,t),this._id=0,this._running=!1,this._rollingBack=!1,this._animations=n,this._settings=e,(!u||u<"2022-05-02")&&delete this._settings.speed,lt.forEach((function(t){i._settings[t.key]=i._settings[t.key]||t.def})),this.duration=e.duration,this.offset=e.offset||0,this.rollbackStartOffset=0}return u(t,[{key:"alternate",get:function(){return this._settings.alternate}},{key:"fill",get:function(){return this._settings.fill}},{key:"iterations",get:function(){return this._settings.iterations}},{key:"direction",get:function(){return this._settings.direction}},{key:"speed",get:function(){return this._settings.speed}},{key:"fps",get:function(){return this._settings.fps}},{key:"maxFiniteDuration",get:function(){return this.iterations>0?this.iterations*this.duration:this.duration}},{key:"_apply",value:function(t){for(var n=arguments.length>1&&void 0!==arguments[1]?arguments[1]:{},e=this._animations,r=e.length,i=0,u=0;u<r;u++)n[u]?i++:(n[u]=e[u](t,1),n[u]&&i++);return i}},{key:"_rollback",value:function(t){var n=this,e=1/0,r=null;this.rollbackStartOffset=t,this._rollingBack=!0,this._running=!0;this._id=window.requestAnimationFrame((function i(u){if(n._rollingBack){null==r&&(r=u);var o=Math.round(t-(u-r)*n.speed);if(o>n.duration&&e!==1/0){var a=!!n.alternate&&o/n.duration%2>1,l=o%n.duration;o=(l+=a?n.duration:0)||n.duration}var s=(n.fps?1e3/n.fps:0)*n.speed,f=Math.max(0,o);f<=e-s&&(n.offset=f,e=f,n._apply(f));var c=n.iterations>0&&-1===n.fill&&o>=n.maxFiniteDuration;(o<=0||n.offset<o||c)&&n.stop(),n._id=window.requestAnimationFrame(i)}}))}},{key:"_start",value:function(){var t=this,n=arguments.length>0&&void 0!==arguments[0]?arguments[0]:0,e=-1/0,r=null,i={};this._running=!0;var u=function u(o){null==r&&(r=o);var a=Math.round((o-r)*t.speed+n),l=(t.fps?1e3/t.fps:0)*t.speed;if(a>=e+l&&!t._rollingBack&&(t.offset=a,e=a,t._apply(a,i)===t._animations.length))return void t.pause(!0);t._id=window.requestAnimationFrame(u)};this._id=window.requestAnimationFrame(u)}},{key:"_pause",value:function(){this._id&&window.cancelAnimationFrame(this._id),this._running=!1}},{key:"play",value:function(){if(!this._running)return this._rollingBack?this._rollback(this.offset):this._start(this.offset)}},{key:"stop",value:function(){this._pause(),this.offset=0,this.rollbackStartOffset=0,this._rollingBack=!1,this._apply(0)}},{key:"reachedToEnd",value:function(){return this.iterations>0&&this.offset>=this.iterations*this.duration}},{key:"restart",value:function(){var t=arguments.length>0&&void 0!==arguments[0]&&arguments[0];this.stop(t),this.play(t)}},{key:"pause",value:function(){this._pause()}},{key:"reverse",value:function(){this.direction=-this.direction}}],[{key:"build",value:function(t,n){delete t.animationSettings,t.options=at(t.options,t.root,"5c7f360c"),t.animations.map((function(n){n.settings=at(n.s,t.root,"5c7f360c"),delete n.s,t.animationSettings||(t.animationSettings=n.settings)}));var e=t.version;if(!(t=rt(t,n)))return null;var r=t.options||{},i=new this(t.animations,t.animationSettings,e);return{el:t.svg,options:r,player:i}}},{key:"push",value:function(t){return this.build(t)}},{key:"init",value:function(){var t=this,n=window.__SVGATOR_PLAYER__&&window.__SVGATOR_PLAYER__["5c7f360c"];Array.isArray(n)&&n.splice(0).forEach((function(n){return t.build(n)}))}}]),t}();function ft(t){return d(t)+""}function ct(t){var n=arguments.length>1&&void 0!==arguments[1]?arguments[1]:" ";return t&&t.length?t.map(ft).join(n):""}function ht(t){if(!t)return"transparent";if(null==t.a||t.a>=1){var n=function(t){return 1===(t=parseInt(t).toString(16)).length?"0"+t:t},e=function(t){return t.charAt(0)===t.charAt(1)},r=n(t.r),i=n(t.g),u=n(t.b);return e(r)&&e(i)&&e(u)&&(r=r.charAt(0),i=i.charAt(0),u=u.charAt(0)),"#"+r+i+u}return"rgba("+t.r+","+t.g+","+t.b+","+t.a+")"}function vt(t){return t?"url(#"+t+")":"none"}!function(){for(var t=0,n=["ms","moz","webkit","o"],e=0;e<n.length&&!window.requestAnimationFrame;++e)window.requestAnimationFrame=window[n[e]+"RequestAnimationFrame"],window.cancelAnimationFrame=window[n[e]+"CancelAnimationFrame"]||window[n[e]+"CancelRequestAnimationFrame"];window.requestAnimationFrame||(window.requestAnimationFrame=function(n){var e=Date.now(),r=Math.max(0,16-(e-t)),i=window.setTimeout((function(){n(e+r)}),r);return t=e+r,i},window.cancelAnimationFrame=window.clearTimeout)}();var yt={f:null,i:function(t,n,e){return 0===t?n:1===t?e:{x:B(t,n.x,e.x),y:B(t,n.y,e.y)}},u:function(t,n){return function(e){var r=n(e);t.setAttribute("rx",ft(r.x)),t.setAttribute("ry",ft(r.y))}}},gt={f:null,i:function(t,n,e){return 0===t?n:1===t?e:{width:B(t,n.width,e.width),height:B(t,n.height,e.height)}},u:function(t,n){return function(e){var r=n(e);t.setAttribute("width",ft(r.width)),t.setAttribute("height",ft(r.height))}}};Object.freeze({M:2,L:2,Z:0,H:1,V:1,C:6,Q:4,T:2,S:4,A:7});var dt={},pt=null;function mt(t){var n=function(){if(pt)return pt;if("object"!==("undefined"==typeof document?"undefined":e(document))||!document.createElementNS)return{};var t=document.createElementNS("http://www.w3.org/2000/svg","svg");return t&&t.style?(t.style.position="absolute",t.style.opacity="0.01",t.style.zIndex="-9999",t.style.left="-9999px",t.style.width="1px",t.style.height="1px",pt={svg:t}):{}}().svg;if(!n)return function(t){return null};var r=document.createElementNS(n.namespaceURI,"path");r.setAttributeNS(null,"d",t),r.setAttributeNS(null,"fill","none"),r.setAttributeNS(null,"stroke","none"),n.appendChild(r);var i=r.getTotalLength();return function(t){var n=r.getPointAtLength(i*t);return{x:n.x,y:n.y}}}function bt(t){return dt[t]?dt[t]:dt[t]=mt(t)}function wt(t,n,e,r){if(!t||!r)return!1;var i=["M",t.x,t.y];if(n&&e&&(i.push("C"),i.push(n.x),i.push(n.y),i.push(e.x),i.push(e.y)),n?!e:e){var u=n||e;i.push("Q"),i.push(u.x),i.push(u.y)}return n||e||i.push("L"),i.push(r.x),i.push(r.y),i.join(" ")}function xt(t,n,e,r){var i=arguments.length>4&&void 0!==arguments[4]?arguments[4]:1,u=wt(t,n,e,r),o=bt(u);try{return o(i)}catch(t){return null}}function At(t,n,e){return t+(n-t)*e}function kt(t,n,e){var r=arguments.length>3&&void 0!==arguments[3]&&arguments[3],i={x:At(t.x,n.x,e),y:At(t.y,n.y,e)};return r&&(i.a=_t(t,n)),i}function _t(t,n){return Math.atan2(n.y-t.y,n.x-t.x)}function St(t,n,e,r){var i=1-r;return i*i*t+2*i*r*n+r*r*e}function Ot(t,n,e,r){return 2*(1-r)*(n-t)+2*r*(e-n)}function jt(t,n,e,r){var i=arguments.length>4&&void 0!==arguments[4]&&arguments[4],u=xt(t,n,null,e,r);return u||(u={x:St(t.x,n.x,e.x,r),y:St(t.y,n.y,e.y,r)}),i&&(u.a=Mt(t,n,e,r)),u}function Mt(t,n,e,r){return Math.atan2(Ot(t.y,n.y,e.y,r),Ot(t.x,n.x,e.x,r))}function Pt(t,n,e,r,i){var u=i*i;return i*u*(r-t+3*(n-e))+3*u*(t+e-2*n)+3*i*(n-t)+t}function Et(t,n,e,r,i){var u=1-i;return 3*(u*u*(n-t)+2*u*i*(e-n)+i*i*(r-e))}function It(t,n,e,r,i){var u=arguments.length>5&&void 0!==arguments[5]&&arguments[5],o=xt(t,n,e,r,i);return o||(o={x:Pt(t.x,n.x,e.x,r.x,i),y:Pt(t.y,n.y,e.y,r.y,i)}),u&&(o.a=Rt(t,n,e,r,i)),o}function Rt(t,n,e,r,i){return Math.atan2(Et(t.y,n.y,e.y,r.y,i),Et(t.x,n.x,e.x,r.x,i))}function Ft(t,n,e){var r=arguments.length>3&&void 0!==arguments[3]&&arguments[3];if(Tt(n)){if(qt(e))return jt(n,e.start,e,t,r)}else if(Tt(e)){if(Bt(n))return jt(n,n.end,e,t,r)}else{if(Bt(n))return qt(e)?It(n,n.end,e.start,e,t,r):jt(n,n.end,e,t,r);if(qt(e))return jt(n,e.start,e,t,r)}return kt(n,e,t,r)}function Nt(t,n,e){var r=Ft(t,n,e,!0);return r.a=function(t){return arguments.length>1&&void 0!==arguments[1]&&arguments[1]?t+Math.PI:t}(r.a)/m,r}function Tt(t){return!t.type||"corner"===t.type}function qt(t){return null!=t.start&&!Tt(t)}function Bt(t){return null!=t.end&&!Tt(t)}var Lt=new N;var Ct={f:ft,i:q},Dt={f:ft,i:L};function zt(t,n,e){return t.map((function(t){return function(t,n,e){var r=t.v;if(!r||"g"!==r.t||r.s||!r.v||!r.r)return t;var i=e.getElementById(r.r),u=i&&i.querySelectorAll("stop")||[];return r.s=r.v.map((function(t,n){var e=u[n]&&u[n].getAttribute("offset");return{c:t,o:e=d(parseInt(e)/100)}})),delete r.v,t}(t,0,e)}))}var Vt={gt:"gradientTransform",c:{x:"cx",y:"cy"},rd:"r",f:{x:"x1",y:"y1"},to:{x:"x2",y:"y2"}};function Gt(t,n,r,i,u,o,a,l){return zt(t,0,l),n=function(t,n,e){for(var r,i,u,o=t.length-1,a={},l=0;l<=o;l++)(r=t[l]).e&&(r.e=n(r.e)),r.v&&"g"===(i=r.v).t&&i.r&&(u=e.getElementById(i.r))&&(a[i.r]={e:u,s:u.querySelectorAll("stop")});return a}(t,i,l),function(i){var u=r(i,t,Yt);if(!u)return"none";if("c"===u.t)return ht(u.v);if("g"===u.t){if(!n[u.r])return vt(u.r);var o=n[u.r];return function(t,n){for(var e=t.s,r=e.length;r<n.length;r++){var i=e[e.length-1].cloneNode();i.id=Qt(i.id),t.e.appendChild(i),e=t.s=t.e.querySelectorAll("stop")}for(var u=0,o=e.length,a=n.length-1;u<o;u++)e[u].setAttribute("stop-color",ht(n[Math.min(u,a)].c)),e[u].setAttribute("offset",n[Math.min(u,a)].o)}(o,u.s),Object.keys(Vt).forEach((function(t){if(void 0!==u[t])if("object"!==e(Vt[t])){var n,r="gt"===t?(n=u[t],Array.isArray(n)?"matrix("+n.join(" ")+")":""):u[t],i=Vt[t];o.e.setAttribute(i,r)}else Object.keys(Vt[t]).forEach((function(n){if(void 0!==u[t][n]){var e=u[t][n],r=Vt[t][n];o.e.setAttribute(r,e)}}))})),vt(u.r)}return"none"}}function Yt(t,e,r){if(0===t)return e;if(1===t)return r;if(e&&r){var i=e.t;if(i===r.t)switch(e.t){case"c":return{t:i,v:z(t,e.v,r.v)};case"g":if(e.r===r.r){var u={t:i,s:$t(t,e.s,r.s),r:e.r};return e.gt&&r.gt&&(u.gt=function(t,n,e){var r=n.length;if(r!==e.length)return T(t,n,e);for(var i=new Array(r),u=0;u<r;u++)i[u]=q(t,n[u],e[u]);return i}(t,e.gt,r.gt)),e.c?(u.c=C(t,e.c,r.c),u.rd=B(t,e.rd,r.rd)):e.f&&(u.f=C(t,e.f,r.f),u.to=C(t,e.to,r.to)),u}}if("c"===e.t&&"g"===r.t||"c"===r.t&&"g"===e.t){var o="c"===e.t?e:r,a="g"===e.t?n({},e):n({},r),l=a.s.map((function(t){return{c:o.v,o:t.o}}));return a.s="c"===e.t?$t(t,l,a.s):$t(t,a.s,l),a}}return T(t,e,r)}function $t(t,n,e){if(n.length===e.length)return n.map((function(n,r){return Ut(t,n,e[r])}));for(var r=Math.max(n.length,e.length),i=[],u=0;u<r;u++){var o=Ut(t,n[Math.min(u,n.length-1)],e[Math.min(u,e.length-1)]);i.push(o)}return i}function Ut(t,n,e){return{o:L(t,n.o,e.o||0),c:z(t,n.c,e.c||{})}}function Qt(t){return t.replace(/-fill-([0-9]+)$/,(function(t,n){return"-fill-"+(+n+1)}))}var Ht={fill:Gt,"fill-opacity":Dt,stroke:Gt,"stroke-opacity":Dt,"stroke-width":Ct,"stroke-dashoffset":{f:ft,i:q},"stroke-dasharray":{f:function(t){var n=arguments.length>1&&void 0!==arguments[1]?arguments[1]:" ";return t&&t.length>0&&(t=t.map((function(t){return d(t,4)}))),ct(t,n)},i:function(t,n,e){var r,i,u,o=n.length,a=e.length;if(o!==a)if(0===o)n=V(o=a,0);else if(0===a)a=o,e=V(o,0);else{var l=(u=(r=o)*(i=a)/function(t,n){for(var e;n;)e=n,n=t%n,t=e;return t||1}(r,i))<0?-u:u;n=G(n,Math.floor(l/o)),e=G(e,Math.floor(l/a)),o=a=l}for(var s=[],f=0;f<o;f++)s.push(d(B(t,n[f],e[f])));return s}},opacity:Dt,transform:function(t,n,r,i){if(!(t=function(t,n){if(!t||"object"!==e(t))return null;var r=!1;for(var i in t)t.hasOwnProperty(i)&&(t[i]&&t[i].length?(t[i].forEach((function(t){t.e&&(t.e=n(t.e))})),r=!0):delete t[i]);return r?t:null}(t,i)))return null;var u=function(e,i,u){var o=arguments.length>3&&void 0!==arguments[3]?arguments[3]:null;return t[e]?r(i,t[e],u):n&&n[e]?n[e]:o};return n&&n.a&&t.o?function(n){var e=r(n,t.o,Nt);return Lt.recomposeSelf(e,u("r",n,q,0)+e.a,u("k",n,C),u("s",n,C),u("t",n,C)).toString()}:function(t){return Lt.recomposeSelf(u("o",t,Ft,null),u("r",t,q,0),u("k",t,C),u("s",t,C),u("t",t,C)).toString()}},r:Ct,"#size":gt,"#radius":yt,_:function(t,n){if(Array.isArray(t))for(var e=0;e<t.length;e++)this[t[e]]=n;else this[t]=n}},Jt=function(t){!function(t,n){if("function"!=typeof n&&null!==n)throw new TypeError("Super expression must either be null or a function");t.prototype=Object.create(n&&n.prototype,{constructor:{value:t,writable:!0,configurable:!0}}),n&&l(t,n)}(o,t);var n,e,i=(n=o,e=s(),function(){var t,r=a(n);if(e){var i=a(this).constructor;t=Reflect.construct(r,arguments,i)}else t=r.apply(this,arguments);return c(this,t)});function o(){return r(this,o),i.apply(this,arguments)}return u(o,null,[{key:"build",value:function(t){var n=h(a(o),"build",this).call(this,t,Ht);if(!n)return null;n.el,n.options,function(t,n,e){t.play()}(n.player)}}]),o}(st);return Jt.init(),Jt}));
(function(s,i,o,w,a,b){w[o]=w[o]||{};w[o][s]=w[o][s]||[];w[o][s].push(i);})('5c7f360c',{"root":"eDWrcwC8ybO1","version":"2022-05-04","animations":[{"elements":{"eDWrcwC8ybO2":{"transform":{"data":{"o":{"x":249.787478,"y":239.189127,"type":"corner"},"t":{"x":-257.101913,"y":-250.612915}},"keys":{"r":[{"t":2300,"v":0},{"t":2400,"v":-9.722917},{"t":2500,"v":5.494436},{"t":2600,"v":-0.178724}],"s":[{"t":2600,"v":{"x":1,"y":1}},{"t":2800,"v":{"x":1.1,"y":1.1}}]}}},"eDWrcwC8ybO9":{"opacity":[{"t":1400,"v":1},{"t":1600,"v":0}]},"eDWrcwC8ybO12":{"opacity":[{"t":1200,"v":1},{"t":1400,"v":0}]},"eDWrcwC8ybO15":{"opacity":[{"t":1800,"v":1},{"t":2000,"v":0}]},"eDWrcwC8ybO18":{"opacity":[{"t":1000,"v":1},{"t":1200,"v":0}]},"eDWrcwC8ybO21":{"opacity":[{"t":0,"v":1},{"t":200,"v":0}]},"eDWrcwC8ybO41":{"opacity":[{"t":400,"v":1},{"t":600,"v":0}]},"eDWrcwC8ybO61":{"opacity":[{"t":800,"v":1},{"t":1000,"v":0}]},"eDWrcwC8ybO64":{"opacity":[{"t":1600,"v":1},{"t":1800,"v":0}]},"eDWrcwC8ybO67":{"opacity":[{"t":700,"v":1},{"t":800,"v":0}]},"eDWrcwC8ybO70":{"opacity":[{"t":200,"v":1},{"t":400,"v":0}]},"eDWrcwC8ybO90":{"opacity":[{"t":600,"v":1},{"t":700,"v":0}]},"eDWrcwC8ybO105":{"transform":{"data":{"r":-2.275145,"s":{"x":0.6,"y":0.6}},"keys":{"o":[{"t":2000,"v":{"x":-136.122,"y":-71.6236,"type":"corner"}},{"t":2300,"v":{"x":-136.12196,"y":70.486973,"type":"corner"}}]}}},"eDWrcwC8ybO112":{"transform":{"data":{"r":-2.275145,"s":{"x":0.6,"y":0.6}},"keys":{"o":[{"t":2000,"v":{"x":192.855,"y":171.827,"type":"corner"}},{"t":2300,"v":{"x":192.85504,"y":313.937584,"type":"corner"}}]}}},"eDWrcwC8ybO115":{"transform":{"data":{"r":-2.275145,"s":{"x":0.6,"y":0.6}},"keys":{"o":[{"t":2000,"v":{"x":302.568,"y":167.468,"type":"corner"}},{"t":2300,"v":{"x":302.56804,"y":309.57858,"type":"corner"}}]}}},"eDWrcwC8ybO118":{"transform":{"data":{"r":-7.102026,"s":{"x":0.6,"y":0.6}},"keys":{"o":[{"t":2000,"v":{"x":-150.119,"y":-37.837,"type":"corner"}},{"t":2300,"v":{"x":-150.118962,"y":104.273573,"type":"corner"}}]}}},"eDWrcwC8ybO123":{"transform":{"data":{"r":2.551747,"s":{"x":0.6,"y":0.6}},"keys":{"o":[{"t":2000,"v":{"x":-119.337,"y":-102.35,"type":"corner"}},{"t":2300,"v":{"x":-119.336962,"y":39.760574,"type":"corner"}}]}}},"eDWrcwC8ybO128":{"transform":{"data":{"r":-2.275145,"s":{"x":0.6,"y":0.6}},"keys":{"o":[{"t":2000,"v":{"x":245.555,"y":100.644,"type":"corner"}},{"t":2300,"v":{"x":245.555039,"y":242.75458,"type":"corner"}}]}}}},"s":"MXDA1ZDllNDU4N0g5ODRk1ODRWOTc4YzkyOTER0NTVkNTY1MzUzNTM0YZjQ1ODc4Yzk1ODhCOUDY5NzhjOTI5MTQ1NWTQ1NDRmNDU4Yzk3ODhMLOTU4NDk3OGM5MjkxMOTY0NTVkNTM0ZjQ1OUDk4YzhmOGY0NTVkNTQQ0ZjQ1ODQ4Zjk3ODgK5NUY5MTg0OTc4ODQ1NNWQ4OTg0OGZSOTY4OHDRmRzQ1OTY5Mzg4ODOg4N080NTVkVzU0NGYN0NTg5OTM5Nkk0NTVkKNTQ1M0o1M2Ew"}],"options":"MFDAxMDg4MmZDODBJODGE2ZTdmODEyZjQ3MmYS3OTdjNmU3MTJmOGE/I"},'__SVGATOR_PLAYER__',window)
]]></script>
</svg>
