<svg width="32" height="32" viewBox="0 0 32 32" fill="none" xmlns="http://www.w3.org/2000/svg">
<circle cx="16" cy="16" r="16" fill="#CB6459"/>
<path d="M11.8335 20.1773L15.511 20.1648L23.5377 12.2148C23.8527 11.8998 24.026 11.4815 24.026 11.0365C24.026 10.5915 23.8527 10.1732 23.5377 9.85817L22.216 8.5365C21.586 7.9065 20.4868 7.90984 19.8618 8.534L11.8335 16.4857V20.1773ZM21.0377 9.71484L22.3618 11.034L21.031 12.3523L19.7093 11.0315L21.0377 9.71484ZM13.5002 17.1807L18.5252 12.2032L19.8468 13.5248L14.8227 18.5007L13.5002 18.5048V17.1807Z" fill="white"/>
<path d="M10.1667 23.5H21.8333C22.7525 23.5 23.5 22.7525 23.5 21.8333V14.61L21.8333 16.2767V21.8333H12.7983C12.7767 21.8333 12.7542 21.8417 12.7325 21.8417C12.705 21.8417 12.6775 21.8342 12.6492 21.8333H10.1667V10.1667H15.8725L17.5392 8.5H10.1667C9.2475 8.5 8.5 9.2475 8.5 10.1667V21.8333C8.5 22.7525 9.2475 23.5 10.1667 23.5Z" fill="white"/>
</svg>
