<svg xmlns="http://www.w3.org/2000/svg" width="32" height="32" viewBox="0 0 32 32" fill="none">
<circle cx="16" cy="16" r="16" fill="#B6BEC8"/>
<path d="M22.75 21.25V14.5C22.75 13.6727 22.0773 13 21.25 13H19V10.75C19 9.92275 18.3273 9.25 17.5 9.25H10.75C9.92275 9.25 9.25 9.92275 9.25 10.75V17.5C9.25 18.3273 9.92275 19 10.75 19H13V21.25C13 22.0773 13.6727 22.75 14.5 22.75H21.25C22.0773 22.75 22.75 22.0773 22.75 21.25ZM10.75 17.5V10.75H17.5V13H14.5C13.6727 13 13 13.6727 13 14.5V17.5H10.75ZM17.5008 17.5H14.5V14.5H17.5008V17.5ZM14.5 19H17.5C18.3273 19 19 18.3273 19 17.5V14.5H21.25L21.2507 21.25H14.5V19Z" fill="white"/>
</svg>