<svg width="32" height="32" viewBox="0 0 32 32" fill="none" xmlns="http://www.w3.org/2000/svg">
<circle cx="16" cy="16" r="16" fill="#169AB3"/>
<path d="M10.1667 23.5H21.8333C22.7525 23.5 23.5 22.7525 23.5 21.8333V14.61L21.8333 16.2767V21.8333H12.7983C12.7767 21.8333 12.7542 21.8417 12.7325 21.8417C12.705 21.8417 12.6775 21.8342 12.6492 21.8333H10.1667V10.1667H15.8725L17.5392 8.5H10.1667C9.2475 8.5 8.5 9.2475 8.5 10.1667V21.8333C8.5 22.7525 9.2475 23.5 10.1667 23.5Z" fill="white"/>
<path d="M21.006 10L16.706 14.292L15.414 13L14 14.414L16.706 17.118L22.418 11.416L21.006 10Z" fill="white"/>
</svg>
