<svg xmlns="http://www.w3.org/2000/svg" xml:space="preserve" width="6.72in" height="6.72in" style="shape-rendering:geometricPrecision; text-rendering:geometricPrecision; image-rendering:optimizeQuality; fill-rule:evenodd; clip-rule:evenodd" viewBox="0 0 6.72 6.72" xmlns:xlink="http://www.w3.org/1999/xlink">
<defs>
<style type="text/css">
   
    .fil0 {fill:black}
    .fil1 {fill:#FFFFFE;fill-rule:nonzero}
   
  </style>
</defs>
<rect class="fil0" width="6.72" height="6.72" rx="1.28" ry="1.28" id="id_101" style="fill: rgb(209, 207, 73);"></rect>
<g id="Layer_x0020_1">
<metadata id="CorelCorpID_0Corel-Layer"></metadata>
<path class="fil1" d="M1.54713 0.8l2.93559 0c-0.013622,0.0235394 -0.0214252,0.0508583 -0.0214252,0.08l0 0.574315c0,0.0883346 0.0716614,0.159996 0.159996,0.159996l0.551575 0c0.0291378,0 0.0564646,-0.00780315 0.08,-0.0214252l0 4.24711c0,0.0441811 -0.0358189,0.08 -0.08,0.08l-3.62573 0c-0.0441811,0 -0.08,-0.0358189 -0.08,-0.08l0 -4.96c0,-0.0441811 0.0358189,-0.08 0.08,-0.08zm0.579421 4.14554c-0.0441811,0 -0.08,0.0358189 -0.08,0.08 0,0.0441811 0.0358189,0.08 0.08,0.08l2.46689 0c0.0441811,0 0.08,-0.0358189 0.08,-0.08 0,-0.0441811 -0.0358189,-0.08 -0.08,-0.08l-2.46689 0zm0 -0.832768c-0.0441811,0 -0.08,0.0358189 -0.08,0.08 0,0.0441811 0.0358189,0.08 0.08,0.08l2.46689 0c0.0441811,0 0.08,-0.0358189 0.08,-0.08 0,-0.0441811 -0.0358189,-0.08 -0.08,-0.08l-2.46689 0zm0 -0.832772c-0.0441811,0 -0.08,0.0358189 -0.08,0.08 0,0.0441811 0.0358189,0.08 0.08,0.08l2.46689 0c0.0441811,0 0.08,-0.0358189 0.08,-0.08 0,-0.0441811 -0.0358189,-0.08 -0.08,-0.08l-2.46689 0zm0 -0.832772c-0.0441811,0 -0.08,0.0358189 -0.08,0.08 0,0.0441811 0.0358189,0.08 0.08,0.08l2.26977 0c0.0441811,0 0.08,-0.0358189 0.08,-0.08 0,-0.0441811 -0.0358189,-0.08 -0.08,-0.08l-2.26977 0zm0 -0.832772c-0.0441811,0 -0.08,0.0358189 -0.08,0.08 0,0.0441811 0.0358189,0.08 0.08,0.08l1.88089 0c0.0441811,0 0.08,-0.0358189 0.08,-0.08 0,-0.0441811 -0.0358189,-0.08 -0.08,-0.08l-1.88089 0z" id="id_102"></path>
<path class="fil1" d="M4.62129 0.8l0.0294685 0c0.0222638,0 0.0423976,0.00909843 0.0569016,0.0237756l0.521768 0.521764 3.93701e-006 -3.93701e-006c0.0156181,0.0156181 0.0234291,0.0360945 0.0234291,0.0565669l3.93701e-006 0 0 0.0522126c0,0.0441811 -0.0358189,0.08 -0.08,0.08l-0.551575 0c-0.0441811,0 -0.08,-0.0358189 -0.08,-0.08l0 -0.574315c0,-0.0441811 0.0358189,-0.08 0.08,-0.08z" id="id_103"></path>
</g>
</svg>