<svg width="12" height="12" viewBox="0 0 12 12" fill="none" xmlns="http://www.w3.org/2000/svg">
<path d="M6 0.166016C4.39175 0.166016 3.08333 1.47443 3.08333 3.08268C3.08333 4.69093 4.39175 5.99935 6 5.99935C7.60825 5.99935 8.91667 4.69093 8.91667 3.08268C8.91667 1.47443 7.60825 0.166016 6 0.166016ZM6 4.83268C5.03517 4.83268 4.25 4.04752 4.25 3.08268C4.25 2.11785 5.03517 1.33268 6 1.33268C6.96483 1.33268 7.75 2.11785 7.75 3.08268C7.75 4.04752 6.96483 4.83268 6 4.83268ZM11.25 11.2493V10.666C11.25 8.41493 9.41775 6.58268 7.16667 6.58268H4.83333C2.58167 6.58268 0.75 8.41493 0.75 10.666V11.2493H1.91667V10.666C1.91667 9.05777 3.22508 7.74935 4.83333 7.74935H7.16667C8.77492 7.74935 10.0833 9.05777 10.0833 10.666V11.2493H11.25Z" fill="#454F5B"/>
</svg>
