<svg width="24" height="24" viewBox="0 0 24 24" fill="none" xmlns="http://www.w3.org/2000/svg">
<path d="M20 3H4C2.897 3 2 3.897 2 5V19C2 20.103 2.897 21 4 21H20C21.103 21 22 20.103 22 19V5C22 3.897 21.103 3 20 3ZM4 19V7H20L20.001 19H4Z" fill="#F7A30A"/>
<path d="M12 12.3333C10.5 12.3333 10.5 11.9133 10.5 11.6667C10.5 11.42 11.025 11 12 11C12.975 11 13.0425 11.4267 13.05 11.6667H14.55C14.5399 11.2125 14.3561 10.7749 14.0289 10.426C13.7018 10.077 13.2507 9.83743 12.75 9.74667V9H11.25V9.72667C9.75 9.94667 9 10.8067 9 11.6667C9 12.4133 9.39 13.6667 12 13.6667C13.5 13.6667 13.5 14.12 13.5 14.3333C13.5 14.5467 13.035 15 12 15C10.62 15 10.5 14.4267 10.5 14.3333H9C9 14.9467 9.495 16.0333 11.25 16.28V17H12.75V16.28C14.25 16.0533 15 15.1933 15 14.3333C15 13.5867 14.61 12.3333 12 12.3333Z" fill="#F7A30A"/>
</svg>
