<svg xmlns="http://www.w3.org/2000/svg" width="32" height="32" viewBox="0 0 32 32" fill="none">
<circle cx="16" cy="16" r="16" fill="#14B9D7"/>
<path d="M21.871 12.1674C22.186 11.8524 22.3593 11.4341 22.3593 10.9891C22.3593 10.5441 22.186 10.1257 21.871 9.81073L20.5493 8.48907C20.2343 8.17407 19.816 8.00073 19.371 8.00073C18.926 8.00073 18.5077 8.17407 18.1935 8.48823L9.3335 17.3207V20.9999H13.011L21.871 12.1674ZM19.371 9.6674L20.6935 10.9882L19.3685 12.3082L18.0468 10.9874L19.371 9.6674ZM11.0002 19.3332V18.0124L16.8668 12.1641L18.1885 13.4857L12.3227 19.3332H11.0002ZM9.3335 22.6666H22.6668V24.3332H9.3335V22.6666Z" fill="white"/>
</svg>