<svg width="24" height="24" viewBox="0 0 24 24" fill="none" xmlns="http://www.w3.org/2000/svg">
<path d="M18.6951 21.9569L22.9629 17.8501L18.6201 13.8228L18.6501 17.0764L14.0004 17.0818L14.0154 18.7086L18.6651 18.7032L18.6951 21.9569Z" fill="white"/>
<path fill-rule="evenodd" clip-rule="evenodd" d="M5.7 5.43994H19.3C20.2376 5.43994 21 6.16875 21 7.06494V13.2749L19.3005 11.8161L19.3 9.53819L13.0219 14.206C12.8689 14.3206 12.6845 14.3774 12.5 14.3774C12.3155 14.3774 12.1311 14.3206 11.9781 14.206L5.7 9.53819V16.8149H12.5V18.4399H5.7C4.76245 18.4399 4 17.7111 4 16.8149V7.06494C4 6.16875 4.76245 5.43994 5.7 5.43994ZM19.3 7.48013V7.06494H5.7V7.48094L12.5 12.5363L19.3 7.48013Z" fill="white"/>
<path fill-rule="evenodd" clip-rule="evenodd" d="M2.6 2.43994H15.4C16.2824 2.43994 17 3.16875 17 4.06494H15.4H2.6V4.48094V6.53819V13.8149V15.4399C1.7176 15.4399 1 14.7111 1 13.8149V4.06494C1 3.16875 1.7176 2.43994 2.6 2.43994Z" fill="white"/>
</svg>
