<svg width="26" height="19" viewBox="0 0 26 19" fill="none" xmlns="http://www.w3.org/2000/svg">
<path fill-rule="evenodd" clip-rule="evenodd" d="M23.5985 6.52662L25.4385 8.11594C25.6953 8.31963 25.7461 8.70556 25.5161 8.96018L25.131 9.42116C24.9009 9.67845 24.5185 9.70257 24.2618 9.49888L22.4217 7.93637C22.165 7.70588 22.1142 7.32262 22.3442 7.06532L22.7293 6.60434C22.9593 6.34705 23.3417 6.32293 23.5985 6.52662Z" fill="#1890FF"/>
<path fill-rule="evenodd" clip-rule="evenodd" d="M21.8508 7.79199L15.4665 15.3995C15.4157 15.4503 15.389 15.5277 15.365 15.5785L14.6758 18.4393C14.6758 18.4901 14.6758 18.5408 14.6758 18.5916C14.6758 18.7198 14.7506 18.8213 14.828 18.8987C14.9295 18.9762 15.0578 19.0002 15.1593 19.0002C15.21 19.0002 15.2608 18.9735 15.3115 18.9735L17.9935 17.7982C18.0709 17.7715 18.1217 17.7208 18.1725 17.67L24.5567 10.0625L21.8508 7.79199Z" fill="#1890FF"/>
<path fill-rule="evenodd" clip-rule="evenodd" d="M23.0075 9.93042L17.748 16.198L16.9609 15.5635L22.2204 9.2666L23.0075 9.93042Z" fill="#1890FF"/>
<path fill-rule="evenodd" clip-rule="evenodd" d="M17.7203 17.0854C17.7203 17.0854 17.7203 17.0854 17.7203 17.1121C17.6963 17.1121 17.6963 17.1121 17.6963 17.1121C17.619 17.1628 17.3895 17.3176 16.8294 17.5712C16.752 17.5979 16.7013 17.6219 16.5999 17.6726L15.709 16.9333C15.733 16.8319 15.7597 16.7545 15.7837 16.7038C15.9384 16.0926 16.0398 15.8364 16.0904 15.759V15.7323L16.1678 15.6816L17.7737 17.0321L17.7203 17.0854Z" fill="#1890FF"/>
<path d="M3.30078 7.92285H4.60291V8.93766H3.30078V7.92285ZM3.30078 10.4599H4.60291V11.4747H3.30078V10.4599ZM3.30078 12.9969H4.60291V14.0117H3.30078V12.9969ZM13.7178 8.93766V7.92285H12.9365H6.68631H5.92001V8.93766H6.68631H12.9365H13.7178ZM5.90504 10.4599H13.7178V11.4747H5.90504V10.4599ZM5.90504 12.9969H13.7178V14.0117H5.90504V12.9969Z" fill="#454F5B"/>
<path fill-rule="evenodd" clip-rule="evenodd" d="M0 1.17375C0 0.525505 0.525505 0 1.17375 0H20.6873C21.3356 0 21.8611 0.525505 21.8611 1.17375V6.77828L20.1004 8.87624V5.72203H1.76062V16.5792H14.0387L13.6146 18.3398H1.17375C0.525505 18.3398 0 17.8143 0 17.1661V1.17375Z" fill="#454F5B"/>
</svg>
