<svg width="34" height="48" viewBox="0 0 34 48" fill="none" xmlns="http://www.w3.org/2000/svg">
<path d="M2.99831 2.97977L2.99831 2.97977C2.17688 3.79631 1.85001 4.80793 1.70361 5.8903C1.56628 6.90573 1.56633 8.17816 1.5664 9.67445L1.56641 9.77585L1.56641 37.5225C1.56641 37.5564 1.5664 37.5902 1.5664 37.6239C1.56633 39.1202 1.56628 40.3926 1.70361 41.4081C1.85001 42.4904 2.17688 43.5021 2.99831 44.3186C3.8185 45.1339 4.83253 45.4572 5.91711 45.6021C6.93683 45.7384 8.21531 45.7384 9.72181 45.7383C9.75522 45.7383 9.78874 45.7383 9.82238 45.7383L23.8677 45.7383L23.9683 45.7383C25.4748 45.7384 26.7532 45.7384 27.773 45.6021C28.8575 45.4572 29.8716 45.1339 30.6918 44.3186C31.5132 43.5021 31.8401 42.4904 31.9864 41.4081C32.1238 40.3926 32.1237 39.1202 32.1237 37.6239L32.1237 37.5225L32.1237 9.77585L32.1237 9.67444C32.1237 8.17816 32.1238 6.90574 31.9864 5.8903C31.8401 4.80793 31.5132 3.79631 30.6918 2.97977C29.8716 2.16446 28.8575 1.8412 27.773 1.69626C26.7532 1.55997 25.4747 1.56003 23.9682 1.5601L23.8677 1.5601L9.82238 1.5601L9.72185 1.5601C8.21533 1.56003 6.93684 1.55997 5.91711 1.69625C4.83253 1.8412 3.8185 2.16446 2.99831 2.97977Z" fill="url(#paint0_linear_7075_259081)" stroke="url(#paint1_linear_7075_259081)" stroke-width="3"/>
<path fill-rule="evenodd" clip-rule="evenodd" d="M2 9.7006C1.99997 8.18185 1.99994 6.93542 2.13319 5.9502C2.27277 4.91821 2.5759 4.01554 3.30183 3.29393C4.02776 2.57232 4.93584 2.27099 5.974 2.13225C6.96512 1.99979 8.21902 1.99982 9.74686 1.99986L23.9439 1.99986C25.4717 1.99982 26.7256 1.99979 27.7167 2.13225C28.7549 2.27099 29.663 2.57232 30.3889 3.29393C31.1148 4.01554 31.418 4.91822 31.5575 5.9502C31.6908 6.93542 31.6908 8.18185 31.6907 9.70061L31.6907 37.5981C31.6908 39.1168 31.6908 40.3633 31.5575 41.3485C31.4179 42.3805 31.1148 43.2831 30.3889 44.0047C29.663 44.7264 28.7549 45.0277 27.7167 45.1664C26.7256 45.2989 25.4717 45.2989 23.9439 45.2988L9.74685 45.2988C8.21901 45.2989 6.96512 45.2989 5.974 45.1664C4.93584 45.0277 4.02776 44.7264 3.30183 44.0047C2.5759 43.2831 2.27277 42.3805 2.13319 41.3485C1.99994 40.3633 1.99997 39.1168 2 37.5981L2 9.7006ZM4.05612 43.2549C5.04551 44.2384 6.63791 44.2384 9.8227 44.2384L23.868 44.2384C27.0528 44.2384 28.6452 44.2384 29.6346 43.2549C30.624 42.2714 30.624 40.6885 30.624 37.5227L30.624 9.77599C30.624 6.61016 30.624 5.02724 29.6346 4.04374C28.6452 3.06024 27.0528 3.06024 23.868 3.06024L9.8227 3.06024C6.63791 3.06024 5.04551 3.06024 4.05612 4.04374C3.06673 5.02724 3.06673 6.61016 3.06673 9.77599L3.06673 37.5227C3.06673 40.6885 3.06673 42.2714 4.05612 43.2549Z" fill="#FFECB3"/>
<path fill-rule="evenodd" clip-rule="evenodd" d="M30.6236 31.7411L3.06641 31.7411L3.06641 30.6807L30.6236 30.6807L30.6236 31.7411Z" fill="#F7A30A"/>
<path fill-rule="evenodd" clip-rule="evenodd" d="M7.8239 44.2048L7.8239 31.5459L8.89062 31.5459L8.89062 44.2048L7.8239 44.2048Z" fill="#F7A30A"/>
<path fill-rule="evenodd" clip-rule="evenodd" d="M7.86686 15.5582L7.86686 3.06055L8.93359 3.06055L8.93359 15.5582L7.86686 15.5582Z" fill="#F7A30A"/>
<path fill-rule="evenodd" clip-rule="evenodd" d="M13.2712 44.2048L13.2712 31.5459L14.3379 31.5459L14.3379 44.2048L13.2712 44.2048Z" fill="#F7A30A"/>
<path fill-rule="evenodd" clip-rule="evenodd" d="M13.2008 15.5582L13.2008 3.06055L14.2676 3.06055L14.2676 15.5582L13.2008 15.5582Z" fill="#F7A30A"/>
<path fill-rule="evenodd" clip-rule="evenodd" d="M18.7174 44.2048L18.7174 31.5459L19.7842 31.5459L19.7842 44.2048L18.7174 44.2048Z" fill="#F7A30A"/>
<path fill-rule="evenodd" clip-rule="evenodd" d="M18.7126 15.5582L18.7126 3.06055L19.7793 3.06055L19.7793 15.5582L18.7126 15.5582Z" fill="#F7A30A"/>
<path fill-rule="evenodd" clip-rule="evenodd" d="M24.5085 31.5457L24.5085 15.5283L25.5752 15.5283L25.5752 31.5457L24.5085 31.5457Z" fill="#F7A30A"/>
<path fill-rule="evenodd" clip-rule="evenodd" d="M30.6241 15.7851L7.86719 15.7851L7.86719 14.7246L30.6241 14.7246L30.6241 15.7851Z" fill="#F7A30A"/>
<defs>
<linearGradient id="paint0_linear_7075_259081" x1="3.06641" y1="23.6492" x2="30.6237" y2="23.6492" gradientUnits="userSpaceOnUse">
<stop stop-color="#F7B512"/>
<stop offset="1" stop-color="#FFDF80"/>
</linearGradient>
<linearGradient id="paint1_linear_7075_259081" x1="2.72128" y1="2.72134" x2="30.8656" y2="48.1853" gradientUnits="userSpaceOnUse">
<stop stop-color="#EAAA28"/>
<stop offset="1" stop-color="#D12421"/>
</linearGradient>
</defs>
</svg>
