<svg width="32" height="32" viewBox="0 0 32 32" fill="none" xmlns="http://www.w3.org/2000/svg">
<circle cx="16" cy="16" r="16" fill="#3BB281"/>
<path d="M13.5958 16C14.555 16 15.2625 15.2925 15.2625 14.3333C15.2625 13.3742 14.555 12.6667 13.5958 12.6667C12.6366 12.6667 11.9291 13.3742 11.9291 14.3333C11.9291 15.2925 12.6358 16 13.5958 16Z" fill="white"/>
<path d="M22.1667 9.33333H8.83335C7.91419 9.33333 7.16669 10.0342 7.16669 10.8958V21.1042C7.16669 21.9658 7.91419 22.6667 8.83335 22.6667H22.1667C23.0859 22.6667 23.8334 21.9658 23.8334 21.1042V10.8958C23.8334 10.0342 23.0859 9.33333 22.1667 9.33333ZM22.1667 21L8.83335 20.9908V11L22.1667 11.0092V21Z" fill="white"/>
<path d="M17.1667 13.5H20.5V15.1667H17.1667V13.5ZM18 16.8333H20.5V18.5H18V16.8333ZM16.6917 18.9467C16.6917 17.8017 15.295 16.625 13.5958 16.625C11.8967 16.625 10.5 17.8017 10.5 18.9467V19.3333H16.6917V18.9467Z" fill="white"/>
</svg>
