<svg width="32" height="32" viewBox="0 0 32 32" fill="none" xmlns="http://www.w3.org/2000/svg">
<circle cx="16" cy="16" r="16" fill="#FF8C5A"/>
<path d="M10.3333 21.3333C10.0666 21.3333 9.83325 21.2333 9.63325 21.0333C9.43325 20.8333 9.33325 20.6 9.33325 20.3333V11.6666C9.33325 11.4 9.43325 11.1666 9.63325 10.9666C9.83325 10.7666 10.0666 10.6666 10.3333 10.6666H14.4999V11.6666H10.3333V20.3333H21.6666V11.6666H17.4999V10.6666H21.6666C21.9333 10.6666 22.1666 10.7666 22.3666 10.9666C22.5666 11.1666 22.6666 11.4 22.6666 11.6666V20.3333C22.6666 20.6 22.5666 20.8333 22.3666 21.0333C22.1666 21.2333 21.9333 21.3333 21.6666 21.3333H10.3333ZM15.9999 18.25L12.6666 14.9166L13.3833 14.2L15.4999 16.3166V10.6666H16.4999V16.3166L18.6166 14.2L19.3333 14.9166L15.9999 18.25Z" fill="white"/>
</svg>
