<svg width="32" height="32" viewBox="0 0 32 32" fill="none" xmlns="http://www.w3.org/2000/svg">
<circle cx="16" cy="16" r="16" fill="#FFC20E"/>
<path d="M16.0001 24.3327C19.2159 24.3327 21.8334 21.7152 21.8334 18.4993C21.8334 15.2835 19.2159 12.666 16.0001 12.666C12.7834 12.666 10.1667 15.2835 10.1667 18.4993C10.1667 21.7152 12.7834 24.3327 16.0001 24.3327ZM16.0001 14.3327C18.2976 14.3327 20.1667 16.2018 20.1667 18.4993C20.1667 20.7968 18.2976 22.666 16.0001 22.666C13.7026 22.666 11.8334 20.7968 11.8334 18.4993C11.8334 16.2018 13.7026 14.3327 16.0001 14.3327ZM15.1667 7.66602H11.8334V12.2643C12.8076 11.6127 13.9426 11.1843 15.1667 11.0485V7.66602ZM20.1667 7.66602H16.8334V11.0485C18.0576 11.1843 19.1926 11.6127 20.1667 12.2643V7.66602Z" fill="white"/>
<path d="M14.3492 19.1752L13.9592 21.4468L16 20.3743L18.0408 21.4468L17.6508 19.1752L19.3025 17.5652L17.0208 17.2335L16 15.166L14.9792 17.2335L12.6975 17.5652L14.3492 19.1752Z" fill="white"/>
</svg>
