<svg width="32" height="32" viewBox="0 0 32 32" fill="none" xmlns="http://www.w3.org/2000/svg">
<ellipse cx="16.0001" cy="16" rx="15.8545" ry="16" fill="#D10373"/>
<path fill-rule="evenodd" clip-rule="evenodd" d="M15.6274 7.0378C15.8569 6.89886 16.1436 6.89886 16.3731 7.0378L24.6306 12.0378C24.8489 12.17 24.9824 12.408 24.9824 12.6648V16.4148C24.9824 16.8187 24.658 17.1461 24.2578 17.1461H23.4096V20.2669H24.2578C24.658 20.2669 24.9824 20.5943 24.9824 20.9982V23.4982C24.9824 23.9018 24.6585 24.229 24.2585 24.2294L23.4318 24.2303L7.74267 24.2294C7.34248 24.2294 7.01807 23.902 7.01807 23.4982V20.9982C7.01807 20.5943 7.34248 20.2669 7.74267 20.2669H8.59094V17.1461H7.74267C7.34248 17.1461 7.01807 16.8187 7.01807 16.4148V12.6648C7.01807 12.408 7.15161 12.17 7.36986 12.0378L15.6274 7.0378ZM8.46727 13.0789V15.6836H9.31554C9.71573 15.6836 10.0401 16.011 10.0401 16.4148V20.9982C10.0401 21.402 9.71573 21.7294 9.31554 21.7294H8.46727V22.7669L23.4313 22.7678L23.5332 22.7677V21.7294H22.685C22.2848 21.7294 21.9603 21.402 21.9603 20.9982V16.4148C21.9603 16.011 22.2848 15.6836 22.685 15.6836H23.5332V13.0789L16.0002 8.51762L8.46727 13.0789ZM16.0001 11.7286C15.7541 11.7285 15.5182 11.8271 15.3443 12.0025C15.1703 12.178 15.0726 12.416 15.0725 12.6642C15.0725 12.7871 15.0964 12.9088 15.143 13.0223C15.1896 13.1359 15.2579 13.2391 15.344 13.326C15.43 13.4129 15.5322 13.4819 15.6447 13.5289C15.7572 13.576 15.8778 13.6002 15.9996 13.6003C16.1214 13.6003 16.242 13.5761 16.3545 13.5291C16.467 13.4821 16.5693 13.4132 16.6554 13.3263C16.7415 13.2395 16.8098 13.1363 16.8565 13.0228C16.9031 12.9092 16.9271 12.7876 16.9272 12.6647C16.9272 12.4165 16.8296 12.1784 16.6557 12.0029C16.4819 11.8273 16.246 11.7287 16.0001 11.7286ZM14.3198 10.9681C14.7656 10.5185 15.3701 10.2659 16.0004 10.2661C16.6307 10.2663 17.2351 10.5191 17.6807 10.969C18.1263 11.4189 18.3765 12.029 18.3764 12.665C18.3763 12.98 18.3147 13.2918 18.1952 13.5828C18.0757 13.8737 17.9006 14.1381 17.6799 14.3607C17.4591 14.5834 17.1971 14.76 16.9087 14.8804C16.6204 15.0009 16.3113 15.0628 15.9992 15.0628C15.6871 15.0627 15.3781 15.0006 15.0898 14.88C14.8015 14.7594 14.5396 14.5826 14.319 14.3599C14.0983 14.1371 13.9233 13.8727 13.804 13.5817C13.6846 13.2907 13.6232 12.9788 13.6233 12.6638C13.6235 12.0278 13.874 11.4178 14.3198 10.9681ZM11.3896 16.4148C11.3896 16.011 11.714 15.6836 12.1142 15.6836H14.4735C14.8737 15.6836 15.1981 16.011 15.1981 16.4148V20.9982C15.1981 21.402 14.8737 21.7294 14.4735 21.7294H12.1142C11.714 21.7294 11.3896 21.402 11.3896 20.9982V16.4148ZM12.8388 17.1461V20.2669H13.7489V17.1461H12.8388ZM16.9272 16.4148C16.9272 16.011 17.2516 15.6836 17.6518 15.6836H20.0111C20.4113 15.6836 20.7357 16.011 20.7357 16.4148V20.9982C20.7357 21.402 20.4113 21.7294 20.0111 21.7294H17.6518C17.2516 21.7294 16.9272 21.402 16.9272 20.9982V16.4148ZM18.3764 17.1461V20.2669H19.2865V17.1461H18.3764Z" fill="white"/>
</svg>
