<svg width="32" height="32" viewBox="0 0 32 32" fill="none" xmlns="http://www.w3.org/2000/svg">
<circle cx="16" cy="16" r="16" fill="#2788FA"/>
<path d="M8.91675 23.5C8.58341 23.5 8.29175 23.375 8.04175 23.125C7.79175 22.875 7.66675 22.5833 7.66675 22.25V12.0625C7.66675 11.7291 7.79175 11.4375 8.04175 11.1875C8.29175 10.9375 8.58341 10.8125 8.91675 10.8125H12.8751V8.91663C12.8751 8.58329 13.0001 8.29163 13.2501 8.04163C13.5001 7.79163 13.7917 7.66663 14.1251 7.66663H17.8751C18.2084 7.66663 18.5001 7.79163 18.7501 8.04163C19.0001 8.29163 19.1251 8.58329 19.1251 8.91663V10.8125H23.0834C23.4167 10.8125 23.7084 10.9375 23.9584 11.1875C24.2084 11.4375 24.3334 11.7291 24.3334 12.0625V22.25C24.3334 22.5833 24.2084 22.875 23.9584 23.125C23.7084 23.375 23.4167 23.5 23.0834 23.5H8.91675ZM14.1251 10.8125H17.8751V8.91663H14.1251V10.8125ZM23.0834 18.2708H17.8959V19.5208H14.1459V18.2708H8.91675V22.25H23.0834V18.2708ZM15.3959 18.2708H16.6459V17.0208H15.3959V18.2708ZM8.91675 17.0208H14.1459V15.7708H17.8959V17.0208H23.0834V12.0625H8.91675V17.0208Z" fill="white"/>
</svg>
