<svg width="32" height="32" viewBox="0 0 32 32" fill="none" xmlns="http://www.w3.org/2000/svg">
<circle cx="16" cy="16" r="16" fill="#3BB281"/>
<path d="M7.66675 21.8333V20.5833H16.0001V21.8333H7.66675ZM7.66675 17.4583V16.2083H11.8334V17.4583H7.66675ZM7.66675 13.0833V11.8333H11.8334V13.0833H7.66675ZM23.4584 21.8333L20.1251 18.5C19.764 18.7778 19.3751 18.9861 18.9584 19.125C18.5417 19.2639 18.1112 19.3333 17.6667 19.3333C16.514 19.3333 15.5313 18.9271 14.7188 18.1146C13.9063 17.3021 13.5001 16.3194 13.5001 15.1667C13.5001 14.0139 13.9063 13.0313 14.7188 12.2188C15.5313 11.4063 16.514 11 17.6667 11C18.8195 11 19.8022 11.4063 20.6147 12.2188C21.4272 13.0313 21.8334 14.0139 21.8334 15.1667C21.8334 15.6111 21.764 16.0417 21.6251 16.4583C21.4862 16.875 21.2779 17.2639 21.0001 17.625L24.3334 20.9583L23.4584 21.8333ZM17.6619 18.0833C18.4707 18.0833 19.1598 17.8002 19.7292 17.2341C20.2987 16.6679 20.5834 15.9804 20.5834 15.1716C20.5834 14.3627 20.3003 13.6736 19.7341 13.1042C19.168 12.5347 18.4805 12.25 17.6716 12.25C16.8628 12.25 16.1737 12.5331 15.6042 13.0993C15.0348 13.6654 14.7501 14.3529 14.7501 15.1618C14.7501 15.9706 15.0332 16.6597 15.5994 17.2292C16.1655 17.7986 16.853 18.0833 17.6619 18.0833Z" fill="white"/>
</svg>
