<svg width="28" height="28" viewBox="0 0 28 28" fill="none" xmlns="http://www.w3.org/2000/svg">
<path d="M2 15.3333H3.33333V18V24.6667C3.33333 26.1373 4.52933 27.3333 6 27.3333H10H18H22C23.4707 27.3333 24.6667 26.1373 24.6667 24.6667V18V15.3333H26C26.5387 15.3333 27.0267 15.008 27.232 14.5107C27.4387 14.012 27.324 13.4387 26.9427 13.0573L14.9427 1.05732C14.4213 0.535987 13.5787 0.535987 13.0573 1.05732L1.05733 13.0573C0.675998 13.4387 0.561331 14.012 0.767998 14.5107C0.973331 15.008 1.46133 15.3333 2 15.3333ZM11.3333 24.6667V18H16.6667V24.6667H11.3333ZM14 3.88532L22 11.8853V18L22.0013 24.6667H19.3333V18C19.3333 16.5293 18.1373 15.3333 16.6667 15.3333H11.3333C9.86266 15.3333 8.66666 16.5293 8.66666 18V24.6667H6V18V14V11.8853L14 3.88532Z" fill="#D12421"/>
</svg>
